# xmcd CD database file
#
# Track frame offsets:
#	150
#	16627
#	28363
#	42618
#	55692
#	70716
#	83820
#	99763
#	110986
#	123060
#
# Disc length: 1818 seconds
#
# Revision: 0
# Processed by: cddbd v1.5.2PL0 Copyright (c) Steve Scherf et al.
# Submitted via: CDex 1.70beta2
#
DISCID=7907180a
DTITLE=Charlie Parker  - 1940-1953 - dix morceaux d'anthologie
DYEAR=1900
DGENRE=Jazz
TTITLE0=Honeysuckle rose/body and soul
TTITLE1=swingmatism
TTITLE2=Cherokee
TTITLE3=Koko
TTITLE4=Lover man
TTITLE5=Quasimodo
TTITLE6=Just friends
TTITLE7=Leap frop
TTITLE8=La Paloma
TTITLE9=Confirmation
EXTD=
EXTT0=
EXTT1=
EXTT2=
EXTT3=
EXTT4=
EXTT5=
EXTT6=
EXTT7=
EXTT8=
EXTT9=
PLAYORDER=
